<mxfile host="Electron" modified="2025-02-26T19:38:24.601Z" agent="Mozilla/5.0 (Windows NT 10.0; Win64; x64) AppleWebKit/537.36 (KHTML, like Gecko) draw.io/22.1.2 Chrome/114.0.5735.289 Electron/25.9.4 Safari/537.36" etag="UA5kbigVFJQ2NT2mRPt_" version="22.1.2" type="device">
  <diagram name="Seite-1" id="b6Eq6jxUqkgoEGQx9wj4">
    <mxGraphModel dx="1036" dy="750" grid="1" gridSize="10" guides="1" tooltips="1" connect="1" arrows="1" fold="1" page="1" pageScale="1" pageWidth="827" pageHeight="1169" math="0" shadow="0">
      <root>
        <mxCell id="0" />
        <mxCell id="1" parent="0" />
        <mxCell id="fy1H44p2y3GMqhNeCwIF-1" value="&lt;font style=&quot;font-size: 120px;&quot;&gt;00:00&lt;/font&gt;" style="rounded=1;whiteSpace=wrap;html=1;arcSize=12;" parent="1" vertex="1">
          <mxGeometry x="50" y="150" width="740" height="420" as="geometry" />
        </mxCell>
        <mxCell id="fy1H44p2y3GMqhNeCwIF-3" value="&lt;span style=&quot;font-size: 28px;&quot;&gt;Stoppuhr/Wecker/Timer&lt;br&gt;&lt;/span&gt;" style="text;html=1;strokeColor=none;fillColor=none;align=center;verticalAlign=middle;whiteSpace=wrap;rounded=0;" parent="1" vertex="1">
          <mxGeometry x="317.5" y="430" width="205" height="30" as="geometry" />
        </mxCell>
        <mxCell id="fy1H44p2y3GMqhNeCwIF-4" value="&lt;font style=&quot;font-size: 22px;&quot;&gt;Timer&lt;/font&gt;" style="ellipse;whiteSpace=wrap;html=1;aspect=fixed;" parent="1" vertex="1">
          <mxGeometry x="70" y="170" width="100" height="100" as="geometry" />
        </mxCell>
        <mxCell id="fy1H44p2y3GMqhNeCwIF-5" value="&lt;font style=&quot;font-size: 22px;&quot;&gt;Stoppuhr&lt;/font&gt;" style="ellipse;whiteSpace=wrap;html=1;aspect=fixed;" parent="1" vertex="1">
          <mxGeometry x="670" y="170" width="100" height="100" as="geometry" />
        </mxCell>
        <mxCell id="fy1H44p2y3GMqhNeCwIF-6" value="" style="sketch=0;pointerEvents=1;shadow=0;dashed=0;html=1;strokeColor=none;labelPosition=center;verticalLabelPosition=bottom;verticalAlign=top;align=center;fillColor=#505050;shape=mxgraph.mscae.enterprise.settings" parent="1" vertex="1">
          <mxGeometry x="730" y="510" width="40" height="40" as="geometry" />
        </mxCell>
        <mxCell id="fy1H44p2y3GMqhNeCwIF-7" value="&lt;font style=&quot;font-size: 22px;&quot;&gt;Wecker&lt;/font&gt;" style="ellipse;whiteSpace=wrap;html=1;aspect=fixed;" parent="1" vertex="1">
          <mxGeometry x="70" y="450" width="100" height="100" as="geometry" />
        </mxCell>
      </root>
    </mxGraphModel>
  </diagram>
</mxfile>
